<svg xmlns="http://www.w3.org/2000/svg" width="14" height="20" fill="none" xmlns:v="https://vecta.io/nano"><g clip-path="url(#A)"><path d="M.452 12.2c.004-.011.012-.021.022-.028s.022-.01.034-.01.024.004.034.011.017.017.021.029c.449 1.236 1.37 2.255 2.531 2.754.058.025.108-.046.067-.092-.856-.978-1.556-2.1-1.782-3.372-.241-1.353.075-2.874.826-4.029.912-1.404 2.434-2.535 3.373-3.922.74-1.092 1.077-2.191 1.162-3.483 0-.013.005-.025.013-.035s.02-.017.032-.02a.06.06 0 0 1 .038.003c.012.005.022.014.028.025.41.751.795 1.522 1.01 2.348.233.893.255 1.864-.104 2.715-.213.504-.649.976-.89 1.469-.224.457-.363 1.041-.14 1.46.028.053.085.031.085-.018 0-.841.607-1.562 1.265-2.121.623-.531 1.326-1.078 1.584-1.834.004-.012.012-.022.023-.03a.06.06 0 0 1 .036-.01c.013.001.025.006.035.014s.017.019.02.032c.289 1.262.525 2.609-.012 3.778-.192.418-.475.788-.712 1.183-.591.991-.894 2.124-.874 3.274.001.067.098.082.118.018.247-.788.89-1.435 1.442-2.085.623-.735 1.145-1.581 1.12-2.52-.002-.059.077-.079.109-.031.8 1.21 1.649 2.315 2.162 3.676.338.894.511 2.341.511 3.18 0 2.674-1.94 4.742-4.634 5.473.308-.215.552-.508.706-.849.499-1.092.024-2.399-.403-2.909-.211.878-.641 1.779-2.027 1.853.563-.383 1.006-1.199.984-2.061-.022-.878-.257-2.172-1.5-3.422.005.969.056 1.549-.47 2.202-.78.971-1.873 1.25-2.374 2.336-.238.516-.306 1.318-.009 2.002.144.334.377.622.673.835C1.916 19.245 0 17.186 0 14.529A6.5 6.5 0 0 1 .452 12.2z" fill="#222"/></g><defs><clipPath id="A"><path fill="#fff" d="M0 0h13.636v20H0z"/></clipPath></defs></svg>