<svg xmlns="http://www.w3.org/2000/svg" width="17" height="19" fill="none" xmlns:v="https://vecta.io/nano"><path d="M15.615 5.086h-2.888c.615-.38 1.057-.987 1.23-1.689.228-.914-.021-1.864-.666-2.543l-.052-.053-.053-.052c-.678-.645-1.629-.894-2.543-.666A2.76 2.76 0 0 0 8.68 1.896l-.253.759-.253-.759A2.76 2.76 0 0 0 6.212.082c-.914-.228-1.864.021-2.543.666L3.616.8l-.053.053c-.645.678-.894 1.629-.666 2.543.173.702.615 1.309 1.23 1.689H1.239a1.24 1.24 0 0 0-.876.363A1.24 1.24 0 0 0 0 6.324v3.216a1.24 1.24 0 0 0 1.087 1.229l5.325.01v7.089H2.32c-.029 0-.056-.011-.076-.032s-.031-.047-.032-.076v-6.298H1.081v6.298a1.24 1.24 0 0 0 1.239 1.239h12.214a1.24 1.24 0 0 0 1.239-1.239v-6.298h-1.131v6.298c0 .029-.011.056-.032.076s-.047.031-.076.032h-4.091v-7.089h5.325a1.3 1.3 0 0 0 .776-.419 1.24 1.24 0 0 0 .311-.82V6.324a1.24 1.24 0 0 0-1.239-1.239zM6.411 9.648H1.239c-.029 0-.056-.011-.076-.032s-.031-.047-.032-.076V6.324c0-.029.011-.056.032-.076s.047-.031.076-.032h5.173v3.431zm.994-4.583l-2.337-.779c-.263-.087-.499-.24-.687-.443s-.321-.451-.387-.72a1.57 1.57 0 0 1 .388-1.489l.033-.033.033-.032a1.57 1.57 0 0 1 1.49-.388c.269.066.516.199.72.387s.356.424.443.687l.738 2.214.031.138a.53.53 0 0 1-.033.309c-.044.092-.112.153-.196.168-.024.004-.049.005-.073.001-.055.006-.11-.001-.162-.019h0zm1.905 2.868v9.936H7.543V6.217h1.768v1.715zm.137-2.868a.36.36 0 0 1-.246-.001c-.178-.031-.28-.245-.239-.478.009-.054.026-.106.05-.155a1.64 1.64 0 0 0 .083-.206l.656-1.97c.087-.263.24-.499.443-.687s.451-.321.72-.387a1.67 1.67 0 0 1 .404-.05 1.56 1.56 0 0 1 1.086.439l.033.032.032.033a1.57 1.57 0 0 1 .388 1.49c-.066.269-.199.517-.387.72s-.424.356-.687.443l-2.337.779zm6.275 4.476c0 .028-.011.056-.031.076s-.047.031-.076.032h-5.173V6.217h5.173c.029 0 .056.011.076.032s.031.047.032.076V9.54z" fill="#222"/></svg>