<svg xmlns="http://www.w3.org/2000/svg" width="17" height="17" fill="none" xmlns:v="https://vecta.io/nano"><path d="M4.645 2.834c0 .337.102.666.293.946s.463.499.782.628a1.78 1.78 0 0 0 1.007.098c.338-.065.649-.228.893-.466a1.69 1.69 0 0 0 .477-.872c.067-.33.033-.673-.099-.984a1.71 1.71 0 0 0-.642-.764 1.77 1.77 0 0 0-.968-.287c-.229 0-.455.043-.667.129s-.404.211-.565.369a1.7 1.7 0 0 0-.378.552c-.088.207-.133.428-.132.652zm4.586.566a2.83 2.83 0 0 1-1.01 1.628c-.518.413-1.166.638-1.835.638s-1.317-.226-1.835-.638A2.83 2.83 0 0 1 3.541 3.4H.58a.59.59 0 0 1-.222-.043.58.58 0 0 1-.188-.123C.116 3.181.073 3.119.044 3.05S0 2.908 0 2.833s.015-.148.044-.217.072-.131.126-.184a.58.58 0 0 1 .188-.123.59.59 0 0 1 .222-.043h2.963A2.83 2.83 0 0 1 4.552.638C5.07.226 5.719 0 6.387 0s1.317.226 1.835.638a2.83 2.83 0 0 1 1.01 1.628h6.447a.59.59 0 0 1 .222.043.58.58 0 0 1 .188.123.57.57 0 0 1 .126.184c.029.069.044.142.044.217s-.015.148-.044.217a.57.57 0 0 1-.126.184.58.58 0 0 1-.188.123.59.59 0 0 1-.222.043H9.231zm1.22 5.101c0 .337.101.666.293.946s.463.499.782.628a1.78 1.78 0 0 0 1.007.098c.338-.066.649-.228.893-.466a1.69 1.69 0 0 0 .477-.872c.067-.33.033-.673-.099-.984a1.71 1.71 0 0 0-.642-.764 1.77 1.77 0 0 0-.968-.287c-.229 0-.455.044-.667.129s-.404.211-.565.369a1.7 1.7 0 0 0-.378.552c-.088.206-.133.428-.133.651zm4.588.565a2.83 2.83 0 0 1-1.01 1.628c-.518.413-1.166.639-1.835.639s-1.317-.226-1.835-.639a2.83 2.83 0 0 1-1.01-1.628H.58a.59.59 0 0 1-.222-.043.58.58 0 0 1-.188-.123c-.054-.053-.097-.115-.126-.184S0 8.574 0 8.5s.015-.148.044-.217.072-.131.126-.184a.58.58 0 0 1 .188-.123.59.59 0 0 1 .222-.043h8.77a2.83 2.83 0 0 1 1.01-1.628c.518-.413 1.166-.638 1.835-.638s1.317.226 1.835.638a2.83 2.83 0 0 1 1.01 1.628h.64a.59.59 0 0 1 .222.043.58.58 0 0 1 .188.123.57.57 0 0 1 .126.184c.029.069.044.142.044.217s-.015.148-.044.217a.57.57 0 0 1-.126.184.58.58 0 0 1-.188.123.59.59 0 0 1-.222.043h-.64zM2.322 14.168c0 .337.101.666.293.947s.463.499.782.628a1.78 1.78 0 0 0 1.007.098c.338-.065.649-.228.893-.466a1.69 1.69 0 0 0 .477-.872c.067-.33.033-.673-.099-.984a1.71 1.71 0 0 0-.642-.764 1.77 1.77 0 0 0-.968-.287 1.76 1.76 0 0 0-1.232.498c-.327.319-.51.752-.511 1.203zm4.587.565a2.83 2.83 0 0 1-1.01 1.628c-.518.413-1.166.638-1.835.638s-1.317-.226-1.835-.638a2.83 2.83 0 0 1-1.01-1.628H.58a.59.59 0 0 1-.222-.043.58.58 0 0 1-.188-.123c-.054-.053-.097-.115-.126-.184S0 14.241 0 14.166s.015-.148.044-.217.072-.131.126-.184a.58.58 0 0 1 .188-.123.59.59 0 0 1 .222-.043h.64a2.83 2.83 0 0 1 1.01-1.628c.518-.413 1.166-.638 1.835-.638s1.317.226 1.835.638a2.83 2.83 0 0 1 1.01 1.628h8.77a.59.59 0 0 1 .222.043c.07.028.134.07.188.123s.097.115.126.184.044.142.044.217-.015.148-.044.217a.57.57 0 0 1-.126.184c-.054.053-.118.094-.188.123a.59.59 0 0 1-.222.043h-8.77z" fill="#000"/></svg>