<svg width="25" height="22" viewBox="0 0 25 22" fill="none" xmlns="http://www.w3.org/2000/svg">
<g clip-path="url(#clip0_2333_3252)">
<path d="M17.0582 21.9999H5.0171V20.9964C5.0171 19.0749 5.20775 15.4877 6.46705 13.0845C7.57583 10.9723 8.77993 9.64273 10.0041 8.65436C9.83352 8.61924 9.66294 8.57911 9.49236 8.53897C8.55416 8.32825 7.67115 8.13258 6.90855 8.24296C5.71448 8.41856 5.02714 9.61263 5.02212 9.95881V10.9572H0V0.928023H5.0171V0.958125C8.65952 -0.717587 12.8839 0.140337 14.8306 0.948091C16.5615 1.66554 19.5165 1.07854 20.3945 0.496552L21.0016 0.0951836L24.4032 2.78435L23.6807 3.58207C19.667 8.00214 18.6185 11.2532 17.7455 14.7451C17.299 16.5463 17.0632 20.0984 17.0632 20.9964V21.9999H17.0582ZM7.04401 19.993H15.0864C15.1667 18.4778 15.3925 15.874 15.7938 14.2585C16.6769 10.7114 17.7304 7.39507 21.4782 3.03521L20.831 2.52346C19.1603 3.24091 16.13 3.66234 14.0579 2.80442C11.8805 1.90134 7.56579 1.34444 4.6057 3.52187L3.00524 4.69587V2.93486H2.00182V8.95539H3.23603C3.71266 7.7864 4.93181 6.50203 6.61756 6.25619C7.75142 6.09062 8.8602 6.34148 9.93386 6.5823C11.2032 6.86827 12.2969 7.11411 13.1298 6.63247L14.1382 8.36839L13.8723 8.52392C11.7651 9.74307 9.94892 10.7916 8.24812 14.0227C7.35507 15.7184 7.10924 18.3223 7.04401 19.993Z" fill="black"/>
</g>
<defs>
<clipPath id="clip0_2333_3252">
<rect width="24.3982" height="22" fill="white"/>
</clipPath>
</defs>
</svg>
