<svg width="23" height="23" viewBox="0 0 23 23" fill="none" xmlns="http://www.w3.org/2000/svg">
<g clip-path="url(#clip0_2332_3292)">
<path d="M21.8203 4.95343H18.7269C19.0466 4.44207 19.2144 3.85333 19.2144 3.24289C19.2144 2.75251 19.1464 2.30481 19.0133 1.91207C18.8766 1.50994 18.6705 1.16349 18.4 0.882137C17.8373 0.296288 17.02 -0.000976562 15.9713 -0.000976562C15.5843 -0.000976562 15.1966 0.100281 14.8184 0.299181C14.4495 0.493017 14.077 0.787388 13.711 1.17361C13.0406 1.88097 12.373 2.9044 11.6714 4.29887C10.9691 2.90368 10.3015 1.88097 9.63107 1.17361C9.26509 0.787388 8.89261 0.493017 8.52447 0.299181C8.1462 0.100281 7.75852 -0.000976562 7.37157 -0.000976562C6.32283 -0.000976562 5.50553 0.296288 4.94283 0.882137C4.67233 1.16349 4.4662 1.50994 4.3295 1.91207C4.19569 2.30481 4.12843 2.75251 4.12843 3.24289C4.12843 3.85261 4.29695 4.44135 4.61591 4.95415H1.17965C0.529434 4.95415 0 5.48286 0 6.13308V9.43553L0.00506289 9.54836V9.55632C0.0354403 9.84563 0.169969 10.1125 0.386226 10.3092C0.603931 10.5067 0.885283 10.6159 1.17965 10.6159H1.65123V22.2338C1.65123 22.6562 1.9955 23.0005 2.41789 23.0005H20.5872L20.6761 22.994H20.6855C21.0638 22.9426 21.3488 22.6157 21.3488 22.2338V10.6152H21.8203C22.4706 10.6152 23 10.0858 23 9.43553V6.13308C23 5.48286 22.4706 4.95343 21.8203 4.95343ZM6.04871 1.94824C6.31777 1.66905 6.74956 1.5338 7.36868 1.53308L7.44462 1.5367C7.81566 1.57503 8.24962 1.89038 8.73638 2.47333C9.22604 3.06063 9.74679 3.89528 10.2827 4.95415H7.37157C6.42843 4.95415 5.66104 4.18676 5.66104 3.24361C5.66104 2.64185 5.78761 2.21802 6.04799 1.94824H6.04871ZM10.7333 6.48676V9.08185H1.53333V6.48676H10.7333ZM10.7333 10.6152V21.4664H3.18456V10.6152H10.7333ZM12.2667 21.4664V10.6152H19.8154V21.4664H12.2667ZM13.0615 4.95343L13.1642 4.75019C13.6836 3.7499 14.1869 2.96226 14.6607 2.40968C15.1265 1.86723 15.5424 1.57358 15.8982 1.53597L15.9742 1.53236C16.5933 1.53236 17.0251 1.66833 17.2941 1.94751C17.5545 2.21729 17.6811 2.64113 17.6811 3.24289C17.6811 4.18604 16.9137 4.95343 15.9705 4.95343H13.0615ZM21.4667 6.48676V9.08185H12.2667V6.48676H21.4667Z" fill="black"/>
</g>
<defs>
<clipPath id="clip0_2332_3292">
<rect width="23" height="23" fill="white"/>
</clipPath>
</defs>
</svg>
