<svg width="27" height="19" viewBox="0 0 27 19" fill="none" xmlns="http://www.w3.org/2000/svg">
<path d="M23.665 19H3.33502C1.49645 19 0 17.5375 0 15.739V3.26097C0 1.46249 1.4957 0 3.33502 0H23.665C25.5036 0 27 1.46249 27 3.26097V15.7398C27 17.5375 25.5043 19.0007 23.665 19.0007V19ZM3.33502 1.59994C2.39863 1.59994 1.63702 2.34464 1.63702 3.26097V15.7398C1.63702 16.6554 2.39863 17.4001 3.33502 17.4001H23.665C24.6014 17.4001 25.363 16.6554 25.363 15.7398V3.26097C25.363 2.34536 24.6014 1.59994 23.665 1.59994H3.33502Z" fill="#282828"/>
<path d="M26.184 5.05859H0.820312V8.3661H26.184V5.05859Z" fill="#282828"/>
<path d="M11.5024 12.4785H5.19531V14.0785H11.5024V12.4785Z" fill="#282828"/>
<path d="M20.328 14.9325C21.2621 14.9325 22.0193 14.1921 22.0193 13.2788C22.0193 12.3654 21.2621 11.625 20.328 11.625C19.3939 11.625 18.6367 12.3654 18.6367 13.2788C18.6367 14.1921 19.3939 14.9325 20.328 14.9325Z" fill="#282828"/>
</svg>
