<svg width="22" height="21" viewBox="0 0 22 21" fill="none" xmlns="http://www.w3.org/2000/svg">
<g clip-path="url(#clip0_2333_3254)">
<path d="M5.62042 20.9992C5.13581 20.9992 4.6543 20.8474 4.24292 20.5485C3.5147 20.0194 3.15692 19.1398 3.30909 18.2526L4.05785 13.8871C4.09184 13.6891 4.02618 13.4872 3.88221 13.3469L0.710581 10.255C0.0660906 9.62688 -0.161458 8.70479 0.116605 7.84881C0.394669 6.99284 1.12088 6.38064 2.01146 6.25118L6.39467 5.61426C6.59348 5.58538 6.76527 5.46056 6.85425 5.28028L8.81444 1.30844C9.21285 0.501442 10.0195 0 10.9195 0C11.8195 0 12.6262 0.501442 13.0245 1.30844L14.9847 5.28028C15.0737 5.4604 15.2454 5.58522 15.4443 5.61426L19.8275 6.25118C20.7182 6.38064 21.4443 6.99284 21.7225 7.84881C22.0005 8.70479 21.773 9.62688 21.1285 10.255L20.8436 10.5327C20.5741 10.7955 20.1426 10.79 19.8798 10.5204C19.6171 10.2508 19.6226 9.81936 19.8922 9.55659L20.1771 9.27884C20.4514 9.01143 20.5446 8.63419 20.4261 8.26977C20.3076 7.90535 20.0107 7.65494 19.6314 7.59979L15.2482 6.96287C14.6053 6.86941 14.0498 6.46591 13.7623 5.88337L11.8021 1.91153C11.6325 1.56797 11.3025 1.36282 10.9194 1.36282C10.5363 1.36282 10.2063 1.56797 10.0367 1.91153L8.07649 5.88337C7.78901 6.46591 7.23349 6.86957 6.59055 6.96287L2.20734 7.59979C1.82824 7.65494 1.53118 7.90535 1.41269 8.26977C1.29436 8.63419 1.38736 9.01128 1.66171 9.27884L4.83334 12.3704C5.29848 12.8238 5.51074 13.4768 5.4009 14.1171L4.65214 18.4827C4.58741 18.8603 4.7337 19.2202 5.04374 19.4455C5.35363 19.6707 5.74122 19.6987 6.0803 19.5204L8.00991 18.5059C8.34297 18.3307 8.75512 18.4588 8.9303 18.792C9.10548 19.1252 8.97742 19.5372 8.64421 19.7124L6.7146 20.7269C6.3681 20.909 5.99318 20.9991 5.62011 20.9991L5.62042 20.9992Z" fill="black"/>
<path d="M18.019 21C17.7536 21 17.4867 20.9359 17.2401 20.8063L14.9128 19.5826C14.8879 19.5695 14.8581 19.5695 14.8332 19.5826L12.5058 20.8063C11.9389 21.1043 11.2649 21.0556 10.7466 20.6791C10.2285 20.3027 9.97372 19.6766 10.082 19.0454L10.5264 16.4538C10.5312 16.4261 10.522 16.3979 10.5019 16.3783L8.61893 14.5429C8.16028 14.0958 7.99839 13.4396 8.19627 12.8305C8.39416 12.2214 8.9109 11.7857 9.54473 11.6935L12.1469 11.3153C12.1748 11.3113 12.1988 11.2939 12.2112 11.2687L13.3749 8.9107C13.6584 8.33634 14.2324 7.97949 14.8729 7.97949C15.5134 7.97949 16.0874 8.33634 16.3709 8.9107L17.5346 11.2687C17.5471 11.2939 17.571 11.3113 17.5988 11.3155L20.2011 11.6937C20.8349 11.7857 21.3516 12.2214 21.5495 12.8306C21.7474 13.4397 21.5855 14.096 21.1269 14.543L19.2439 16.3784C19.2238 16.398 19.2146 16.4263 19.2193 16.454L19.6638 19.0457C19.7721 19.677 19.5175 20.303 18.9992 20.6794C18.7065 20.8922 18.3638 21.0003 18.0189 21.0003L18.019 21Z" fill="black"/>
</g>
<defs>
<clipPath id="clip0_2333_3254">
<rect width="21.8391" height="21" fill="white"/>
</clipPath>
</defs>
</svg>
