<svg width="14" height="17" viewBox="0 0 14 17" fill="none" xmlns="http://www.w3.org/2000/svg">
<g clip-path="url(#clip0_2158_6293)">
<path d="M6.88043 17L6.66783 16.9349C6.05432 16.7472 4.54851 15.9006 3.12188 14.6065C1.69763 13.3147 0 11.2749 0 8.89357V1.93948L0.735737 1.94863C0.784989 1.9492 0.835823 1.94954 0.888238 1.94954C2.20518 1.94954 4.6765 1.74247 6.4297 0.356289L6.88043 0L7.33104 0.356289C9.08436 1.74259 11.5556 1.94954 12.8725 1.94954C12.9249 1.94954 12.9758 1.9492 13.0251 1.94863L13.7609 1.93948V8.89357C13.7609 11.2749 12.0632 13.3147 10.6391 14.6065C9.21247 15.9006 7.70665 16.7472 7.09314 16.9349L6.88054 17H6.88043ZM1.45329 3.39141V8.89357C1.45329 10.7428 2.89155 12.4356 4.09812 13.5301C5.25951 14.5836 6.37842 15.2278 6.88032 15.4589C7.38222 15.2278 8.50113 14.5836 9.66252 13.5301C10.8691 12.4356 12.3075 10.7427 12.3075 8.89357V3.39141C10.8528 3.3329 8.66832 3.02089 6.88043 1.82426C5.09254 3.02089 2.90804 3.33279 1.45329 3.39141Z" fill="black"/>
<path d="M6.08728 11.4934L3.67188 9.07798L4.82309 7.92664L6.08728 9.19072L9.77116 5.50684L10.9225 6.65817L6.08728 11.4934Z" fill="black"/>
</g>
<defs>
<clipPath id="clip0_2158_6293">
<rect width="13.7607" height="17" fill="white"/>
</clipPath>
</defs>
</svg>
