<?xml version="1.0" encoding="utf-8"?>
<!-- Generator: Adobe Illustrator 16.0.3, SVG Export Plug-In . SVG Version: 6.00 Build 0)  -->
<!DOCTYPE svg PUBLIC "-//W3C//DTD SVG 1.1//EN" "http://www.w3.org/Graphics/SVG/1.1/DTD/svg11.dtd">
<svg version="1.1" id="Ebene_1" xmlns="http://www.w3.org/2000/svg" xmlns:xlink="http://www.w3.org/1999/xlink" x="0px" y="0px"
	 width="175.5px" height="110px" viewBox="0 0 175.5 110" enable-background="new 0 0 175.5 110" xml:space="preserve">
<title></title>
<g id="Joy_Stick">
	<path fill="#000000" d="M50.117,12.5h-25c-1.727,0-3.125-1.398-3.125-3.125v-6.25C21.992,1.399,23.391,0,25.117,0h25
		c1.727,0,3.125,1.399,3.125,3.125v6.25C53.242,11.101,51.843,12.5,50.117,12.5z M28.242,6.25L28.242,6.25z"/>
	<path fill="#000000" d="M150.117,12.5h-25c-1.727,0-3.125-1.398-3.125-3.125v-6.25c0-1.726,1.398-3.125,3.125-3.125h25
		c1.727,0,3.125,1.399,3.125,3.125v6.25C153.242,11.101,151.844,12.5,150.117,12.5z M128.242,6.25L128.242,6.25z"/>
	<path fill="#000000" d="M161.68,109.375h-19.125c-8.742,0.145-16.729-4.932-20.313-12.906C116.6,83.438,103.756,75.002,89.555,75
		h-3.875c-14.201,0.002-27.045,8.438-32.688,21.469c-3.584,7.975-11.572,13.051-20.314,12.906H13.553
		C6.08,109.387,0.012,103.338,0,95.865c-0.002-1.146,0.143-2.287,0.428-3.396L21.991,8.594c0.364-1.417,1.663-2.39,3.125-2.344
		h125.001c1.461-0.046,2.76,0.927,3.125,2.344l21.563,83.875c1.863,7.236-2.492,14.615-9.729,16.48
		C163.967,109.232,162.826,109.377,161.68,109.375z M85.679,68.75h3.875c16.695-0.006,31.793,9.92,38.406,25.25
		c2.6,5.688,8.342,9.277,14.594,9.125h19.125c4.021,0.076,7.342-3.123,7.416-7.145c0.012-0.656-0.063-1.313-0.229-1.949
		L147.711,12.5H27.523L6.367,94.031c-1.002,3.895,1.343,7.863,5.238,8.865c0.637,0.164,1.291,0.24,1.949,0.229H32.68
		c6.252,0.152,11.994-3.438,14.595-9.125C53.886,78.67,68.986,68.744,85.679,68.75z"/>
	<path fill="#000000" d="M53.242,62.5h-12.5c-1.727,0-3.125-1.398-3.125-3.125v-6.25h-6.25c-1.727,0-3.125-1.398-3.125-3.125V37.5
		c0-1.726,1.398-3.125,3.125-3.125h6.25v-6.25c0-1.726,1.398-3.125,3.125-3.125h12.5c1.727,0,3.125,1.399,3.125,3.125v6.25h6.25
		c1.727,0,3.125,1.399,3.125,3.125V50c0,1.727-1.398,3.125-3.125,3.125h-6.25v6.25C56.367,61.102,54.968,62.5,53.242,62.5z
		 M43.867,56.25h6.25V50c0-1.726,1.398-3.125,3.125-3.125h6.25v-6.25h-6.25c-1.727,0-3.125-1.398-3.125-3.125v-6.25h-6.25v6.25
		c0,1.727-1.398,3.125-3.125,3.125h-6.25v6.25h6.25c1.727,0,3.125,1.399,3.125,3.125V56.25z"/>
	<path fill="#000000" d="M131.367,37.5c-3.451,0-6.25-2.797-6.25-6.25c0-3.451,2.799-6.25,6.25-6.25s6.25,2.799,6.25,6.25
		C137.617,34.703,134.818,37.5,131.367,37.5z"/>
	<path fill="#000000" d="M131.367,62.5c-3.451,0-6.25-2.799-6.25-6.25c0-3.452,2.799-6.25,6.25-6.25s6.25,2.799,6.25,6.25
		C137.617,59.701,134.818,62.5,131.367,62.5z"/>
	<path fill="#000000" d="M143.867,50c-3.451,0-6.25-2.797-6.25-6.25c0-3.451,2.799-6.25,6.25-6.25s6.25,2.799,6.25,6.25
		C150.117,47.203,147.318,50,143.867,50z"/>
	<path fill="#000000" d="M118.867,50c-3.451,0-6.25-2.797-6.25-6.25c0-3.451,2.799-6.25,6.25-6.25s6.25,2.799,6.25,6.25
		C125.117,47.203,122.318,50,118.867,50z"/>
</g>
</svg>
