<svg width="18" height="23" viewBox="0 0 18 23" fill="none" xmlns="http://www.w3.org/2000/svg">
<g clip-path="url(#clip0_2333_3246)">
<path d="M17.4768 6.78036C17.4545 6.6874 17.3806 6.61552 17.2872 6.59569C17.1938 6.57586 17.0971 6.6118 17.0389 6.6874L16.0548 7.97225C16.0164 8.02224 15.9986 8.08545 16.0048 8.14824C16.0296 8.39117 16.0424 8.6312 16.0424 8.86173C16.0412 10.7787 15.2938 12.582 13.9387 13.9383C12.5824 15.2946 10.7803 16.0412 8.86379 16.0412C6.94726 16.0412 5.14476 15.2942 3.78596 13.9383C2.43005 12.5803 1.68352 10.7774 1.68352 8.86173C1.68352 6.94602 2.43005 5.14352 3.78555 3.78555C5.14352 2.43005 6.94685 1.68311 8.86338 1.68187C10.0487 1.68311 11.2215 1.97767 12.2552 2.53375C12.3622 2.59118 12.4957 2.56267 12.5696 2.466L13.298 1.51372C13.3413 1.45671 13.3583 1.384 13.3438 1.31377C13.3294 1.24353 13.2856 1.1828 13.2232 1.14769C11.8978 0.397022 10.3903 0 8.86379 0C3.97642 0.000826268 0 3.97642 0 8.86214C0 13.7479 3.97642 17.7239 8.86379 17.7263C13.7491 17.7243 17.7235 13.7479 17.7235 8.86214C17.7235 8.16064 17.6404 7.45996 17.4768 6.77994V6.78036Z" fill="black"/>
<path d="M8.85119 13.5035C8.50333 13.5035 8.17736 13.3482 7.95923 13.0788L4.41247 8.71241C4.01297 8.21996 4.0894 7.49367 4.58062 7.09417C4.78884 6.92561 5.03878 6.83637 5.30608 6.83637C5.65518 6.83637 5.98114 6.99171 6.19969 7.26149L8.82557 10.4955L15.8943 1.26113C16.1141 0.973998 16.4475 0.80957 16.8094 0.80957C17.0635 0.80957 17.3051 0.890958 17.5076 1.0463C18.0104 1.43258 18.1079 2.15597 17.7216 2.65958L9.76339 13.0511C9.54938 13.3325 9.22466 13.4973 8.87143 13.5031H8.85119V13.5035Z" fill="black"/>
<path d="M10.1211 18.4679L11.9067 23.0008L11.9872 22.9699L14.3099 20.5774L17.6381 20.7426L17.7199 20.7104L15.7377 15.6797C14.2595 17.1703 12.3029 18.1825 10.1211 18.4679Z" fill="black"/>
<path d="M2.23651 15.9189L0.347656 20.7101L0.428217 20.7423L3.75808 20.577L6.07783 22.9695L6.15963 23.0005L7.93239 18.5056C5.73906 18.2941 3.75808 17.3484 2.23651 15.9189Z" fill="black"/>
</g>
<defs>
<clipPath id="clip0_2333_3246">
<rect width="17.9581" height="23" fill="white"/>
</clipPath>
</defs>
</svg>
