<svg width="20" height="17" viewBox="0 0 20 17" fill="none" xmlns="http://www.w3.org/2000/svg">
<g clip-path="url(#clip0_2158_6289)">
<path d="M15.2799 7.04434C15.2799 4.13315 12.9449 1.75359 10.0803 1.75359H9.18651C6.35137 1.75359 4.02079 4.09175 3.98465 6.97533V13.4904L2.97997 13.3178C1.26941 13.0256 0 11.5021 0 9.73696C0 8.23883 0.927693 6.88323 2.29431 6.34935C2.6406 2.76627 5.64092 0 9.18651 0H10.0803C13.6259 0 16.624 2.77078 16.9701 6.34935C18.3391 6.88323 19.2668 8.23419 19.2668 9.73696C19.2668 11.2397 18.3572 12.5653 17.0064 13.113V13.7275C17.0064 15.0438 15.9407 16.1255 14.6465 16.1255H12.2502C11.8 16.6502 10.9854 17 10.0531 17C8.63446 17 7.48731 16.1876 7.48731 15.1866C7.48731 14.1856 8.63446 13.3731 10.0531 13.3731C11.0578 13.3731 11.9243 13.7804 12.3475 14.3719H14.6463C14.9925 14.3719 15.2822 14.0819 15.2822 13.7275C15.2822 11.4997 15.2799 9.27209 15.2799 7.04434Z" fill="black"/>
</g>
<defs>
<clipPath id="clip0_2158_6289">
<rect width="19.2667" height="17" fill="white"/>
</clipPath>
</defs>
</svg>
