<?xml version="1.0" encoding="utf-8"?>
<!-- Generator: Adobe Illustrator 16.0.3, SVG Export Plug-In . SVG Version: 6.00 Build 0)  -->
<!DOCTYPE svg PUBLIC "-//W3C//DTD SVG 1.1//EN" "http://www.w3.org/Graphics/SVG/1.1/DTD/svg11.dtd">
<svg version="1.1" id="Ebene_1" xmlns="http://www.w3.org/2000/svg" xmlns:xlink="http://www.w3.org/1999/xlink" x="0px" y="0px"
	 width="612px" height="610px" viewBox="0 0 612 610" enable-background="new 0 0 612 610" xml:space="preserve">
<title>football-green</title>
<g id="Ebene_2">
	<g id="Ebene_1-2">
		<path fill="#000000" d="M411.25,591.754h-0.362c4.523-1.509,111.585-37.438,165.09-146.736l0,0
			c12.454-22.871,21.646-47.376,27.298-72.796c19.212-83.438,2.211-171.109-46.796-241.319
			C492.627,34.187,389.986,11.309,383.381,9.956c-35.524-9.802-72.652-12.401-109.194-7.644h0.363
			C149.758,17.029,86.683,90.708,83.045,95.284l0.312-0.313c-37.72,40.568-63.879,90.5-75.761,144.604
			c-4.34,18.158-6.779,36.715-7.279,55.376c-5.875,119.125,71.81,207.105,76.125,211.889c33.343,36.427,74.47,64.86,120.32,83.195
			l0,0c4.732,1.769,117.357,42.896,214.333,1.508 M66.666,254.759c19.392,22.079,40.236,42.838,62.396,62.136
			c0,0.26,0,0.624,0,0.885v-0.625c-5.516,37.063-7.258,74.59-5.198,112.004c0,0.519,0,0.987,0,1.507l0,0v-0.936
			c-4.004-43.833,2.236-109.192,2.236-109.192C104.431,302.52,84,283.065,64.95,262.299c-14.685,16.297-25.773,35.502-32.551,56.365
			c0-0.365,0-0.729,0-1.091C39.24,294.443,50.92,273.031,66.666,254.759 M350.363,479.126l-0.571,0.314
			c-43.158,24.438-85.067,32.186-105.294,36.396c0.012-0.189,0.012-0.382,0-0.571h-0.104c36.977-9.371,72.503-23.733,105.604-42.689
			l0.572-0.313c14.3,8.268,55.794,31.666,81.378,39.883v0.416c-27.968-9.197-55.234-20.408-81.585-33.537 M234.929,499.821
			c-38.219-16.743-82.727-56.262-93.229-65.878c-4.524-45.656,2.442-99.42,4.68-114.813c43.261-21.578,86.159-39.153,99.521-44.508
			c25.323,17.626,89.486,62.292,105.606,73.734c0.045,36.351-2.737,72.648-8.319,108.569
			c-33.744,19.521-70.164,33.99-108.103,42.948 M88.713,124.765c1.103,2.854,2.352,5.647,3.743,8.373
			c-12.858,23.269-22.214,48.307-27.768,74.305c-3.12,13.883-4.731,24.803-5.198,30.054l0,0
			c-14.611,14.742-26.291,32.121-34.423,51.217l0,0c-0.122,0.319-0.262,0.631-0.416,0.938c0.905-15.184,3.078-30.263,6.5-45.082
			C40.804,200.715,60.51,159.705,88.713,124.765 M216.105,89.823l-2.912,0.364c22.61,15.036,43.53,32.47,62.397,51.996l0.935-2.702
			c-4.212,12.428-25.166,74.148-36.761,119.229c-13.208,5.199-56.209,22.878-99.887,44.613
			c-12.583-11.127-49.502-44.563-65.36-66.505l1.978,2.651c0.623-5.2,2.131-15.234,5.198-28.078
			c5.308-25.334,14.535-49.685,27.351-72.173c9.413-6.603,65.568-45.028,107.271-49.501 M412.084,155.964
			c-15.186-2.289-65.26-9.984-114.396-3.38c-4.574,13.364-27.662,68.375-39.829,109.662l-1.144-0.781l0,0
			c10.815-41.596,29.379-96.922,34.994-113.561c49.711-7.021,105.294,0,120.635,2.392c14.557,27.412,26.583,56.095,35.929,85.69
			c-10.33-27.439-22.49-54.157-36.397-79.972 M226.35,77.968c-1.612,2.963-2.6,5.199-3.016,5.979
			C223.75,83.065,224.738,80.932,226.35,77.968 M447.491,87.171l-33.329,45.757c-17.314-2.548-73.266-9.619-124.792-2.287h-0.677
			c-18.938-19.629-39.828-37.277-62.344-52.673c6.707-12.479,24.023-39.727,51.997-52.31c32.965-3.907,66.373-1.49,98.43,7.123
			c5.201,2.497,45.288,22.1,70.77,54.338L447.491,87.171z M545.041,303.012c-22.899-15.893-46.914-30.107-71.86-42.535
			c-0.022-0.172-0.022-0.346,0-0.52c-9.784-40.531-24.689-79.653-44.354-116.421l-0.417-0.832l33.642-46.122
			c10.401,3.172,38.427,14.196,75.865,49.189c18.114,26.701,31.68,56.221,40.143,87.355c-5.113,25.521-16.355,49.415-32.759,69.624
			 M528.089,432.174c-38.844,42.999-75.708,61.357-84.495,65.358c-18.042-3.533-61.93-27.296-83.196-39.568
			c5.589-36.269,8.37-72.911,8.319-109.607c34.189-21.971,67.009-46.003,98.274-71.966l0,0
			c25.881,13.066,50.767,28.012,74.46,44.717l-3.224-2.287c2.946,32.795,0.88,65.846-6.138,98.016
			c-1.715,7.643-3.276,12.896-4.056,15.339 M527.517,433.785l0.52-1.561L527.517,433.785 M247.044,571.267L247.044,571.267
			c-14.2,0.448-28.404-0.754-42.326-3.59c-41.786-17.023-79.325-43.01-109.975-76.123c-9.12-13.401-16.021-28.186-20.436-43.782
			h0.417c18.607,2.357,37.451,2.148,56.001-0.624c12.116,11.128,55.949,49.763,95.831,67.6
			c4.283,19.561,11.156,38.462,20.436,56.205"/>
	</g>
</g>
</svg>
