<svg width="21" height="23" viewBox="0 0 21 23" fill="none" xmlns="http://www.w3.org/2000/svg">
<g clip-path="url(#clip0_2333_3281)">
<path d="M6.35406 20.7021L3.18169 21.0563C2.99616 21.0767 2.82257 20.9411 2.80148 20.7527L1.39592 8.18274C1.38467 8.08435 1.417 7.98596 1.48377 7.91287L3.62163 5.57471C3.88166 5.29079 3.86199 4.84944 3.57806 4.59011C3.29343 4.33008 2.85279 4.34976 2.59346 4.63369L0.455593 6.97185C0.116851 7.34221 -0.0447889 7.83978 0.010731 8.33735L1.4156 20.9073C1.51469 21.795 2.26877 22.4528 3.14233 22.4528C3.20629 22.4528 3.27094 22.4492 3.3363 22.4422L6.50867 22.088C6.89098 22.0452 7.16647 21.7008 7.12431 21.3178C7.08144 20.9355 6.73356 20.6593 6.35406 20.7021Z" fill="#1E1E1E"/>
<path d="M20.2478 17.0496L14.9966 4.34395C14.8413 3.96796 14.5314 3.67772 14.1462 3.547L7.55484 1.31215C6.98066 1.11818 6.35589 1.31847 5.99325 1.7795C4.92362 0.804033 3.76191 0.047135 2.86657 0.00215687C2.37954 -0.0217378 1.98528 0.153255 1.71822 0.509567C1.47998 0.827225 1.40267 1.20743 1.49473 1.60661C1.7885 2.88146 3.71272 4.0537 4.59401 4.53089L2.7478 8.25705C2.56718 8.6218 2.55313 9.04628 2.70844 9.42227L7.95964 22.1279C8.18453 22.6711 8.71092 22.9993 9.26541 22.9993C9.44462 22.9993 9.62665 22.9649 9.80234 22.8925L19.4839 18.8909C19.8325 18.7468 20.1037 18.4762 20.2478 18.1284C20.3926 17.7805 20.3926 17.3968 20.2485 17.0489L20.2478 17.0496ZM4.96508 3.78173C3.51172 2.99461 2.45755 2.06272 2.30926 1.41897C2.27272 1.25803 2.29661 1.13294 2.38727 1.01135C2.45333 0.923506 2.56859 0.824414 2.8251 0.837064C3.51383 0.8715 4.57574 1.59326 5.58142 2.5385L4.96508 3.78173ZM7.28427 4.44726C7.45364 4.67778 7.60825 4.90618 7.74108 5.12615C7.81979 5.25617 7.95753 5.32785 8.09879 5.32785C8.17259 5.32785 8.24708 5.30817 8.31525 5.26741C8.51273 5.14794 8.57598 4.89072 8.45651 4.69324C8.33704 4.49575 8.19578 4.28633 8.04327 4.07338C8.32228 4.02419 8.60972 4.0523 8.87748 4.16334C9.24784 4.31725 9.53669 4.60609 9.68919 4.97716C9.8424 5.34823 9.8424 5.75655 9.68849 6.12692C9.53458 6.49728 9.24574 6.78613 8.87467 6.93863C8.68983 7.01523 8.49516 7.05318 8.30049 7.05318C8.10582 7.05318 7.91045 7.01453 7.72491 6.93723C7.35455 6.78332 7.0657 6.49447 6.91249 6.1241C6.66582 5.52744 6.83519 4.86191 7.28356 4.44726H7.28427ZM15.679 15.9785C15.5012 16.2681 15.18 16.4283 14.8434 16.3967L12.7512 16.2034C12.7379 16.2034 12.7196 16.2083 12.7098 16.221L11.3646 17.8346C11.1931 18.0398 10.9465 18.1529 10.6878 18.1529C10.6183 18.1529 10.548 18.1445 10.4777 18.1276C10.1481 18.0482 9.89651 17.7931 9.82202 17.4621L9.35959 15.4128C9.35607 15.3973 9.34483 15.384 9.33007 15.3777L7.37985 14.5969C7.065 14.4711 6.85276 14.1822 6.82605 13.8442C6.79935 13.5061 6.9645 13.1878 7.25616 13.0149L9.06231 11.9417C9.07637 11.9333 9.0855 11.9193 9.0862 11.9031L9.22606 9.80669C9.24925 9.46795 9.45798 9.177 9.77142 9.04768C10.0849 8.91697 10.4377 8.9767 10.6935 9.20089L12.2719 10.5868C12.2839 10.5973 12.3007 10.6001 12.3162 10.5973L14.3529 10.0822C14.6804 9.99855 15.0226 10.1075 15.2433 10.3661C15.4633 10.6247 15.5167 10.9782 15.3824 11.2903L14.5518 13.2201C14.5454 13.2349 14.5468 13.2517 14.5553 13.2644L15.6748 15.0431C15.8554 15.3299 15.8575 15.6883 15.6797 15.9771L15.679 15.9785Z" fill="#1E1E1E"/>
</g>
<defs>
<clipPath id="clip0_2333_3281">
<rect width="20.3547" height="23" fill="white"/>
</clipPath>
</defs>
</svg>
