<svg width="20" height="17" viewBox="0 0 20 17" fill="none" xmlns="http://www.w3.org/2000/svg">
<g clip-path="url(#clip0_2158_6291)">
<path d="M9.2386 15.5215H5.91265C5.50396 15.5215 5.17341 15.8521 5.17341 16.2608C5.17341 16.6695 5.50396 17 5.91265 17H9.31675C9.26679 16.845 9.2386 16.6797 9.2386 16.5067V15.5215ZM18.4785 0H0.739242C0.330545 0 0 0.330545 0 0.739242V13.3051C0 13.7138 0.330545 14.0443 0.739242 14.0443H9.2386V11.0886H1.47848V1.47848H17.7392V4.06519H18.7245C18.8961 4.06519 19.0614 4.09338 19.2177 4.14334V0.739242C19.2177 0.330545 18.8872 0 18.4785 0ZM18.7245 5.17341H10.8401C10.5685 5.17341 10.3468 5.39377 10.3468 5.66667V16.508C10.3468 16.7796 10.5672 17.0013 10.8401 17.0013H13.6728V15.1538H11.455V6.28291H18.1069V8.50064H19.2152V5.66667C19.2152 5.39506 18.9948 5.17341 18.7219 5.17341H18.7245ZM18.9705 9.60886H15.0283C14.8925 9.60886 14.7823 9.71904 14.7823 9.85485V16.754C14.7823 16.8898 14.8925 17 15.0283 17H18.9705C19.1063 17 19.2164 16.8898 19.2164 16.754V9.85485C19.2164 9.71904 19.1063 9.60886 18.9705 9.60886ZM17.492 16.508H16.5067C16.3709 16.508 16.2608 16.3978 16.2608 16.262C16.2608 16.1262 16.3709 16.0161 16.5067 16.0161H17.492C17.6278 16.0161 17.738 16.1262 17.738 16.262C17.738 16.3978 17.6278 16.508 17.492 16.508ZM18.4772 15.5228H15.5202V10.3494H18.4772V15.5228Z" fill="black"/>
</g>
<defs>
<clipPath id="clip0_2158_6291">
<rect width="19.2177" height="17" fill="white"/>
</clipPath>
</defs>
</svg>
