<svg width="11" height="13" viewBox="0 0 11 13" fill="none" xmlns="http://www.w3.org/2000/svg">
<path d="M8.55589 6.75973C8.54524 6.26313 8.66685 5.77329 8.90701 5.34541C9.14718 4.91754 9.49634 4.56864 9.91515 4.33806C9.65112 3.95321 9.30574 3.63791 8.90615 3.41692C8.50656 3.19594 8.06363 3.07529 7.61217 3.06446C6.64714 2.98451 5.5923 3.65529 5.20644 3.65529C4.79851 3.65529 3.86316 3.09564 3.1295 3.09564C1.6127 3.11883 0 4.36364 0 6.89724C0.00691742 7.68754 0.139123 8.47112 0.391187 9.21577C0.739755 10.2639 1.99323 12.8319 3.30607 12.7911C3.99102 12.7743 4.47506 12.2802 5.36703 12.2802C6.2316 12.2802 6.67986 12.7911 7.44397 12.7911C8.76518 12.7711 9.90145 10.435 10.2333 9.38447C9.73745 9.17134 9.31335 8.80781 9.01512 8.3403C8.71689 7.87278 8.55807 7.3225 8.55893 6.75973H8.55589ZM7.01626 2.07069C7.25661 1.79253 7.43882 1.46456 7.55116 1.10792C7.6635 0.751273 7.70346 0.373861 7.66849 0C6.95676 0.0809483 6.29916 0.43718 5.82367 0.999368C5.57981 1.27313 5.39221 1.59668 5.27254 1.9499C5.15287 2.30311 5.10368 2.67843 5.12805 3.05247C5.49471 3.06015 5.85773 2.97494 6.1864 2.80405C6.51507 2.63315 6.79972 2.38161 7.01626 2.07069Z" fill="#131C46"/>
</svg>
