<svg width="11" height="14" viewBox="0 0 11 14" fill="none" xmlns="http://www.w3.org/2000/svg">
<path fill-rule="evenodd" clip-rule="evenodd" d="M6.65846 1.96171L7.25881 1.03188C7.27614 1.0073 7.2837 0.976665 7.27988 0.946409C7.27607 0.916152 7.26116 0.888647 7.23833 0.869582C7.22612 0.861679 7.21253 0.856362 7.19835 0.853982C7.18417 0.851602 7.16968 0.852166 7.15571 0.855677C7.14175 0.859187 7.12866 0.865591 7.11707 0.874449C7.10549 0.883307 7.09568 0.894465 7.08826 0.9073L6.46742 1.87411C5.59971 1.51531 4.63357 1.51531 3.76586 1.87411L3.14502 0.9073C3.1376 0.894465 3.12779 0.883307 3.1162 0.874449C3.10462 0.865591 3.09152 0.859187 3.07756 0.855677C3.0636 0.852166 3.0491 0.851602 3.03492 0.853982C3.02074 0.856362 3.00715 0.861679 2.99495 0.869582C2.97212 0.888647 2.95721 0.916152 2.95339 0.946409C2.94958 0.976665 2.95713 1.0073 2.97446 1.03188L3.57482 1.96171C3.11125 2.17401 2.70952 2.51007 2.41008 2.93604C2.11065 3.36202 1.92411 3.86283 1.86927 4.38802H8.36401C8.30917 3.86283 8.12263 3.36202 7.82319 2.93604C7.52376 2.51007 7.12202 2.17401 6.65846 1.96171ZM3.75903 3.42833C3.68586 3.42975 3.6139 3.40838 3.55242 3.36698C3.49093 3.32557 3.44267 3.26597 3.41376 3.19581C3.38484 3.12566 3.37662 3.04812 3.39011 2.97306C3.4036 2.89801 3.43823 2.82885 3.48954 2.77439C3.54085 2.71994 3.60648 2.68266 3.67817 2.66732C3.74985 2.65198 3.82432 2.65928 3.89203 2.68827C3.95973 2.71725 4.01763 2.7666 4.05833 2.83006C4.09904 2.89352 4.12075 2.96822 4.12063 3.04459C4.12117 3.14543 4.08345 3.24241 4.0157 3.31431C3.94794 3.38621 3.85566 3.42721 3.75903 3.42833ZM6.47425 3.42833C6.40108 3.42975 6.3292 3.40838 6.26772 3.36698C6.20623 3.32557 6.15789 3.26597 6.12897 3.19581C6.10006 3.12566 6.09183 3.04812 6.10532 2.97306C6.11881 2.89801 6.15345 2.82885 6.20476 2.77439C6.25606 2.71994 6.32178 2.68266 6.39347 2.66732C6.46515 2.65198 6.53954 2.65928 6.60724 2.68827C6.67494 2.71725 6.73284 2.7666 6.77355 2.83006C6.81426 2.89352 6.83597 2.96822 6.83584 3.04459C6.83639 3.14543 6.79866 3.24241 6.73091 3.31431C6.66316 3.38621 6.57087 3.42721 6.47425 3.42833ZM1.45313 8.76797C1.45313 8.96907 1.37661 9.16192 1.24035 9.30411C1.10409 9.44631 0.919219 9.52621 0.726523 9.52621C0.533826 9.52621 0.349034 9.44631 0.212777 9.30411C0.0765199 9.16192 0 8.96907 0 8.76797V5.63537C0 5.43427 0.0765199 5.24143 0.212777 5.09923C0.349034 4.95704 0.533826 4.87714 0.726523 4.87714C0.919219 4.87714 1.10409 4.95704 1.24035 5.09923C1.37661 5.24143 1.45313 5.43427 1.45313 5.63537V8.76797ZM1.86927 4.88783V10.5422C1.86819 10.6209 1.88195 10.699 1.90983 10.7721C1.93771 10.8452 1.97916 10.9119 2.03175 10.9683C2.08434 11.0247 2.1471 11.0697 2.21638 11.1008C2.28566 11.1319 2.36008 11.1484 2.43548 11.1494H3.11096V12.8895C3.11096 12.9886 3.12966 13.0867 3.166 13.1783C3.20234 13.2698 3.25558 13.353 3.32273 13.4231C3.38988 13.4932 3.46959 13.5488 3.55733 13.5867C3.64507 13.6246 3.7391 13.6441 3.83406 13.6441C3.92903 13.6441 4.02306 13.6246 4.1108 13.5867C4.19854 13.5488 4.27824 13.4932 4.3454 13.4231C4.41255 13.353 4.46587 13.2698 4.50221 13.1783C4.53855 13.0867 4.55726 12.9886 4.55726 12.8895V11.1494H5.67602V12.8895C5.67602 12.9886 5.69473 13.0867 5.73107 13.1783C5.76741 13.2698 5.82073 13.353 5.88788 13.4231C5.95503 13.4932 6.03474 13.5488 6.12248 13.5867C6.21021 13.6246 6.30425 13.6441 6.39921 13.6441C6.49418 13.6441 6.58821 13.6246 6.67595 13.5867C6.76368 13.5488 6.84339 13.4932 6.91054 13.4231C6.97769 13.353 7.03093 13.2698 7.06727 13.1783C7.10362 13.0867 7.12232 12.9886 7.12232 12.8895V11.1494H7.79779C7.8732 11.1484 7.94762 11.1319 8.0169 11.1008C8.08618 11.0697 8.14894 11.0247 8.20153 10.9683C8.25412 10.9119 8.29557 10.8452 8.32345 10.7721C8.35133 10.699 8.36509 10.6209 8.36401 10.5422V4.88783H1.86927ZM8.78015 8.76797C8.78015 8.96907 8.85667 9.16192 8.99292 9.30411C9.12918 9.44631 9.31406 9.52621 9.50675 9.52621C9.69945 9.52621 9.88424 9.44631 10.0205 9.30411C10.1568 9.16192 10.2333 8.96907 10.2333 8.76797V5.63537C10.2333 5.43427 10.1568 5.24143 10.0205 5.09923C9.88424 4.95704 9.69945 4.87714 9.50675 4.87714C9.31406 4.87714 9.12918 4.95704 8.99292 5.09923C8.85667 5.24143 8.78015 5.43427 8.78015 5.63537V8.76797Z" fill="#131C46"/>
</svg>
